<?xml version="1.0" standalone="no"?>
<!DOCTYPE svg PUBLIC "-//W3C//DTD SVG 20010904//EN"
 "http://www.w3.org/TR/2001/REC-SVG-20010904/DTD/svg10.dtd">
<svg version="1.0" xmlns="http://www.w3.org/2000/svg"
 width="512.000000pt" height="512.000000pt" viewBox="0 0 512.000000 512.000000"
 preserveAspectRatio="xMidYMid meet">

<g transform="translate(0.000000,512.000000) scale(0.100000,-0.100000)"
fill="#000000" stroke="none">
<path d="M1857 4322 l-157 -157 0 -578 0 -577 -270 0 -270 0 0 415 0 415 -315
0 -315 0 0 -960 0 -960 85 0 85 0 0 -355 0 -355 498 -2 497 -3 3 -282 2 -283
-170 0 -170 0 0 -320 0 -320 315 0 315 0 0 320 c0 251 3 320 13 320 7 0 84
-72 172 -160 l160 -160 640 0 640 0 160 160 c88 88 165 160 172 160 10 0 13
-69 13 -320 l0 -320 315 0 315 0 0 320 0 320 -170 0 -170 0 0 640 0 640 -960
0 -960 0 0 640 0 640 960 0 960 0 0 483 0 482 -158 158 -157 157 -960 0 -960
0 -158 -158z m-159 -2214 l-3 -603 -352 -3 -353 -2 0 210 0 210 85 0 85 0 0
395 0 395 270 0 270 0 -2 -602z"/>
</g>
</svg>
