<?xml version="1.0" standalone="no"?>
<!DOCTYPE svg PUBLIC "-//W3C//DTD SVG 20010904//EN"
 "http://www.w3.org/TR/2001/REC-SVG-20010904/DTD/svg10.dtd">
<svg version="1.0" xmlns="http://www.w3.org/2000/svg"
 width="512.000000pt" height="512.000000pt" viewBox="0 0 512.000000 512.000000"
 preserveAspectRatio="xMidYMid meet">

<g transform="translate(0.000000,512.000000) scale(0.100000,-0.100000)"
fill="#000000" stroke="none">
<path d="M345 4935 c-24 -23 -25 -29 -25 -160 l0 -135 -80 0 -80 0 0 55 c0 46
-4 60 -25 80 -32 33 -78 33 -110 0 l-25 -24 0 -391 0 -391 25 -24 c15 -16 36
-25 55 -25 51 0 80 38 80 105 l0 55 80 0 80 0 0 -1520 0 -1520 -80 0 -80 0 0
55 c0 46 -4 60 -25 80 -32 33 -78 33 -110 0 l-25 -24 0 -391 0 -391 25 -24
c32 -33 78 -33 110 0 21 20 25 34 25 80 l0 55 80 0 80 0 0 -135 c0 -131 1
-137 25 -160 l24 -25 591 0 591 0 24 25 c24 23 25 29 25 160 l0 135 1120 0
1120 0 0 -135 c0 -131 1 -137 25 -160 l24 -25 591 0 591 0 24 25 25 24 0 2351
0 2351 -25 24 -24 25 -591 0 -591 0 -24 -25 c-24 -23 -25 -29 -25 -160 l0
-135 -1120 0 -1120 0 0 135 c0 131 -1 137 -25 160 l-24 25 -591 0 -591 0 -24
-25z m1095 -215 l0 -80 -480 0 -480 0 0 80 0 80 480 0 480 0 0 -80z m3520
-2160 l0 -2240 -480 0 -481 0 3 82 3 82 78 13 c167 28 335 118 462 247 338
342 338 890 0 1232 -121 123 -286 214 -440 243 -33 7 -70 14 -83 17 l-22 4 2
322 3 322 78 13 c167 28 335 118 462 247 338 342 338 890 0 1232 -121 123
-286 214 -440 243 -117 23 -105 11 -105 101 l0 80 480 0 480 0 0 -2240z m-865
1897 c33 -9 102 -38 154 -63 76 -38 108 -61 176 -129 68 -68 91 -100 129 -176
61 -126 79 -200 79 -329 0 -124 -17 -201 -72 -315 -68 -144 -186 -261 -333
-330 -158 -75 -45 -69 -1508 -75 l-1315 -5 -58 -23 c-135 -55 -247 -176 -288
-313 -28 -91 -23 -224 11 -311 45 -119 156 -231 278 -280 l57 -23 1315 -5
c1480 -6 1351 1 1529 -86 76 -38 108 -61 176 -129 68 -68 91 -100 129 -176 61
-126 79 -200 79 -329 0 -129 -18 -203 -79 -329 -38 -76 -61 -108 -129 -176
-68 -68 -100 -91 -176 -129 -182 -89 33 -80 -2151 -84 l-1938 -2 0 120 0 120
1938 2 1937 3 57 23 c121 49 232 160 280 280 32 83 32 261 0 344 -48 120 -159
231 -280 280 l-57 23 -1315 5 c-1480 6 -1351 -1 -1529 86 -76 38 -108 61 -176
129 -68 68 -91 100 -129 176 -61 126 -79 200 -79 329 0 129 18 203 79 329 38
76 61 108 129 176 68 68 100 91 176 129 178 87 49 80 1529 86 l1315 5 57 23
c121 49 232 160 280 280 32 83 32 261 -1 344 -48 122 -156 230 -280 280 l-56
23 -1937 3 -1938 2 0 120 0 120 1938 -2 c1810 -3 1941 -4 1997 -21z m-2655
-697 l0 -320 -22 -4 c-13 -3 -50 -10 -83 -17 -151 -28 -317 -119 -436 -238
-344 -343 -344 -899 0 -1242 125 -125 294 -214 458 -242 l78 -13 3 -322 2
-322 -480 0 -480 0 0 1520 0 1520 480 0 480 0 0 -320z m400 0 l0 -320 -120 0
-120 0 0 320 0 320 120 0 120 0 0 -320z m400 0 l0 -320 -120 0 -120 0 0 320 0
320 120 0 120 0 0 -320z m400 0 l0 -320 -120 0 -120 0 0 320 0 320 120 0 120
0 0 -320z m400 0 l0 -320 -120 0 -120 0 0 320 0 320 120 0 120 0 0 -320z m400
0 l0 -320 -120 0 -120 0 0 320 0 320 120 0 120 0 0 -320z m400 0 l0 -320 -120
0 -120 0 0 320 0 320 120 0 120 0 0 -320z m272 253 c47 -32 94 -101 113 -167
46 -154 -34 -317 -187 -381 l-38 -15 0 310 0 310 38 -15 c20 -9 54 -28 74 -42z
m-2272 -1453 l0 -320 -120 0 -120 0 0 320 0 320 120 0 120 0 0 -320z m400 0
l0 -320 -120 0 -120 0 0 320 0 320 120 0 120 0 0 -320z m400 0 l0 -320 -120 0
-120 0 0 320 0 320 120 0 120 0 0 -320z m400 0 l0 -320 -120 0 -120 0 0 320 0
320 120 0 120 0 0 -320z m400 0 l0 -320 -120 0 -120 0 0 320 0 320 120 0 120
0 0 -320z m400 0 l0 -320 -120 0 -120 0 0 320 0 320 120 0 120 0 0 -320z
m-2402 -155 l-3 -156 -62 31 c-108 54 -167 154 -168 280 0 127 59 225 168 280
l62 31 3 -156 c1 -85 1 -225 0 -310z m402 -1045 l0 -320 -120 0 -120 0 0 320
0 320 120 0 120 0 0 -320z m400 0 l0 -320 -120 0 -120 0 0 320 0 320 120 0
120 0 0 -320z m400 0 l0 -320 -120 0 -120 0 0 320 0 320 120 0 120 0 0 -320z
m400 0 l0 -320 -120 0 -120 0 0 320 0 320 120 0 120 0 0 -320z m400 0 l0 -320
-120 0 -120 0 0 320 0 320 120 0 120 0 0 -320z m400 0 l0 -320 -120 0 -120 0
0 320 0 320 120 0 120 0 0 -320z m272 253 c47 -32 94 -101 113 -167 46 -154
-34 -317 -187 -381 l-38 -15 0 310 0 310 38 -15 c20 -9 54 -28 74 -42z m-2672
-1213 l0 -80 -480 0 -480 0 0 80 0 80 480 0 480 0 0 -80z"/>
</g>
</svg>
