<?xml version="1.0" standalone="no"?>
<!DOCTYPE svg PUBLIC "-//W3C//DTD SVG 20010904//EN"
 "http://www.w3.org/TR/2001/REC-SVG-20010904/DTD/svg10.dtd">
<svg version="1.0" xmlns="http://www.w3.org/2000/svg"
 width="512.000000pt" height="512.000000pt" viewBox="0 0 512.000000 512.000000"
 preserveAspectRatio="xMidYMid meet">

<g transform="translate(0.000000,512.000000) scale(0.100000,-0.100000)"
fill="#000000" stroke="none">
<path d="M1836 4919 l-26 -20 0 -220 c0 -278 -13 -259 175 -259 l135 0 0 -78
0 -78 -102 -12 c-117 -14 -244 -39 -368 -72 -90 -25 -130 -53 -130 -93 0 -18
-9 -26 -37 -36 -21 -7 -69 -27 -106 -44 -47 -21 -71 -27 -75 -19 -4 6 -20 15
-34 21 -23 9 -37 5 -85 -20 -129 -68 -267 -173 -312 -239 -65 -96 -61 30 -61
-1740 0 -1765 -4 -1649 60 -1730 18 -22 55 -51 88 -67 l57 -28 880 -3 c630 -2
887 1 907 9 15 6 31 24 37 40 l10 29 109 0 110 0 12 -31 c17 -41 43 -49 155
-49 107 0 140 11 154 51 l10 29 119 0 c119 0 120 0 126 -25 13 -52 36 -57 258
-53 200 3 204 3 262 32 60 30 109 84 133 149 9 24 12 436 12 1643 1 1773 5
1647 -60 1744 -17 25 -62 70 -101 100 -254 200 -629 347 -1013 396 l-135 18 0
78 0 78 135 0 c188 0 175 -19 175 259 l0 220 -26 20 c-26 21 -34 21 -724 21
-690 0 -698 0 -724 -21z m854 -2169 c274 -44 511 -217 635 -465 105 -211 120
-431 44 -659 -125 -376 -497 -615 -894 -575 -366 37 -655 291 -751 659 -26 98
-23 301 5 405 114 426 532 702 961 635z"/>
<path d="M2460 2492 c-103 -106 -198 -244 -270 -387 -94 -188 -127 -356 -96
-488 35 -150 125 -266 258 -331 285 -141 624 37 678 355 31 182 -53 432 -228
679 -90 127 -209 250 -242 250 -18 0 -46 -22 -100 -78z m148 -151 c66 -78 167
-232 206 -314 82 -173 101 -336 52 -443 -56 -123 -158 -194 -288 -202 -155 -9
-280 73 -335 220 -47 130 9 358 138 558 52 81 167 230 178 230 4 0 26 -22 49
-49z"/>
</g>
</svg>
