<?xml version="1.0" standalone="no"?>
<!DOCTYPE svg PUBLIC "-//W3C//DTD SVG 20010904//EN"
 "http://www.w3.org/TR/2001/REC-SVG-20010904/DTD/svg10.dtd">
<svg version="1.0" xmlns="http://www.w3.org/2000/svg"
 width="512.000000pt" height="512.000000pt" viewBox="0 0 512.000000 512.000000"
 preserveAspectRatio="xMidYMid meet">

<g transform="translate(0.000000,512.000000) scale(0.100000,-0.100000)"
fill="#000000" stroke="none">
<path d="M2390 5113 c-173 -10 -428 -63 -589 -123 -95 -35 -258 -115 -340
-167 -151 -96 -340 -271 -397 -368 l-25 -43 121 -849 c66 -466 125 -860 131
-874 16 -40 48 -49 179 -49 l120 0 -6 -27 c-2 -16 -90 -593 -194 -1283 -204
-1345 -198 -1294 -144 -1319 27 -12 509 -16 539 -5 10 4 169 142 354 306 l336
299 5 -278 c3 -153 9 -285 13 -295 5 -9 22 -22 38 -28 34 -14 82 0 96 28 4 10
10 142 13 294 l5 278 336 -298 c184 -164 343 -301 353 -305 10 -4 131 -7 270
-7 267 0 280 2 306 50 8 14 -38 341 -180 1277 -105 692 -193 1270 -196 1286
l-6 27 121 0 c132 0 164 9 180 49 6 14 65 408 131 874 l121 849 -26 43 c-39
68 -178 209 -285 289 -365 275 -837 401 -1380 369z m398 -164 c389 -42 708
-172 967 -395 l80 -69 -410 -5 c-225 -3 -418 -9 -428 -14 -41 -20 -48 -86 -12
-121 l24 -25 451 0 450 0 -5 -22 c-2 -13 -50 -342 -105 -733 -55 -390 -103
-722 -106 -737 l-6 -28 -1128 0 -1128 0 -6 28 c-3 15 -51 347 -106 737 -55
391 -103 720 -105 733 l-5 22 450 0 451 0 24 25 c39 38 27 102 -22 124 -16 7
-154 11 -426 11 l-402 1 60 55 c244 222 567 361 945 409 131 16 370 18 498 4z
m-308 -2450 l0 -141 -101 124 c-56 67 -109 131 -117 141 -14 16 -9 17 101 17
l117 0 0 -141z m378 124 c-8 -10 -61 -74 -117 -141 l-101 -124 0 141 0 141
117 0 c110 0 115 -1 101 -17z m-555 -297 l156 -189 -55 -66 c-30 -36 -125
-152 -212 -257 -86 -105 -159 -187 -160 -182 -6 14 102 888 109 886 3 -2 76
-88 162 -192z m736 -246 c29 -241 51 -443 49 -448 -3 -10 -415 486 -418 503
-1 10 300 384 310 385 3 0 30 -198 59 -440z m-561 -874 l-3 -234 -180 160
c-99 88 -199 178 -223 199 l-43 38 223 271 223 271 3 -236 c1 -129 1 -340 0
-469z m402 420 c116 -142 208 -261 203 -265 -40 -35 -385 -341 -410 -365 l-33
-30 0 474 c0 401 2 472 14 460 7 -8 109 -131 226 -274z m-684 -616 c115 -102
217 -192 228 -201 18 -15 7 -27 -269 -272 -159 -141 -289 -256 -290 -254 -6 7
110 917 116 915 4 -2 101 -86 215 -188z m1005 -267 c31 -252 55 -459 54 -460
-1 -2 -131 112 -289 253 l-287 255 43 38 c24 21 126 113 228 204 102 91 187
166 190 166 3 1 31 -205 61 -456z"/>
<path d="M2522 4467 c-28 -16 -424 -588 -468 -677 -99 -199 -61 -414 102 -578
227 -228 575 -229 805 -2 168 166 206 385 101 590 -22 43 -344 518 -431 637
-16 22 -53 43 -74 43 -7 -1 -22 -6 -35 -13z m211 -463 c203 -295 221 -331 221
-434 0 -100 -35 -179 -110 -250 -159 -151 -401 -154 -560 -8 -61 56 -91 105
-110 180 -20 77 -12 145 24 221 26 53 352 536 362 536 3 0 81 -110 173 -245z"/>
<path d="M2665 3655 c-14 -13 -25 -36 -25 -50 0 -35 -50 -85 -85 -85 -14 0
-37 -11 -50 -25 -33 -33 -33 -78 1 -112 22 -22 32 -25 79 -21 111 9 204 102
213 213 4 47 1 57 -21 79 -34 34 -79 34 -112 1z"/>
</g>
</svg>
