<?xml version="1.0" standalone="no"?>
<!DOCTYPE svg PUBLIC "-//W3C//DTD SVG 20010904//EN"
 "http://www.w3.org/TR/2001/REC-SVG-20010904/DTD/svg10.dtd">
<svg version="1.0" xmlns="http://www.w3.org/2000/svg"
 width="512.000000pt" height="512.000000pt" viewBox="0 0 512.000000 512.000000"
 preserveAspectRatio="xMidYMid meet">

<g transform="translate(0.000000,512.000000) scale(0.100000,-0.100000)"
fill="#000000" stroke="none">
<path d="M519 4857 c-139 -47 -228 -142 -265 -282 -20 -73 -20 -2037 0 -2110
37 -142 133 -242 274 -285 63 -20 100 -20 2031 -20 2105 0 2009 -2 2110 49 58
30 133 107 164 168 44 86 48 140 45 555 -3 430 -1 413 -70 425 -30 4 -41 1
-62 -20 l-26 -26 0 -398 c0 -379 -1 -400 -21 -443 -27 -60 -64 -98 -124 -126
-95 -45 -92 -49 -97 143 -3 164 -4 169 -35 235 -44 93 -100 151 -191 196 l-76
37 -543 3 -543 3 -25 -25 c-30 -30 -33 -74 -6 -107 l19 -24 534 -5 533 -5 45
-25 c40 -23 110 -99 110 -121 0 -5 -684 -9 -1740 -9 -1056 0 -1740 4 -1740 9
0 22 70 98 110 121 l45 25 933 5 934 5 19 24 c27 33 24 77 -6 107 l-25 24
-943 -2 -943 -3 -76 -37 c-91 -45 -147 -103 -191 -196 -31 -66 -32 -71 -35
-234 -5 -193 -2 -189 -98 -144 -59 27 -116 90 -132 145 -9 27 -12 235 -12 735
l0 696 135 0 c131 0 137 1 160 25 33 32 33 78 0 110 -23 24 -29 25 -160 25
l-135 0 0 216 c0 141 4 231 12 258 16 55 99 138 154 154 32 9 491 12 1996 12
2205 0 2013 7 2091 -80 24 -26 49 -66 55 -88 8 -25 12 -117 12 -256 l0 -216
-1895 0 -1896 0 -24 -25 c-33 -32 -33 -78 0 -110 l24 -25 1896 0 1895 0 0
-175 c0 -173 0 -176 25 -200 38 -39 102 -27 124 22 17 37 15 942 -3 1008 -39
147 -144 252 -291 291 -41 11 -408 14 -2020 14 l-1970 -1 -66 -22z"/>
<path d="M2105 4455 c-16 -15 -25 -36 -25 -55 0 -19 9 -40 25 -55 l24 -25 431
0 431 0 24 25 c16 15 25 36 25 55 0 19 -9 40 -25 55 l-24 25 -431 0 -431 0
-24 -25z"/>
<path d="M3520 3667 c-49 -16 -133 -102 -148 -153 -28 -94 -8 -169 63 -239 51
-52 102 -75 165 -75 124 0 240 116 240 240 0 63 -23 114 -75 165 -70 71 -152
91 -245 62z m114 -158 c58 -27 55 -115 -5 -139 -63 -26 -125 36 -100 99 19 44
60 60 105 40z"/>
<path d="M4160 3667 c-49 -16 -133 -102 -148 -153 -28 -94 -8 -169 63 -239 51
-52 102 -75 165 -75 124 0 240 116 240 240 0 63 -23 114 -75 165 -70 71 -152
91 -245 62z m114 -158 c58 -27 55 -115 -5 -139 -63 -26 -125 36 -100 99 19 44
60 60 105 40z"/>
<path d="M665 3495 c-16 -15 -25 -36 -25 -55 0 -19 9 -40 25 -55 l24 -25 1191
0 1191 0 24 25 c16 15 25 36 25 55 0 19 -9 40 -25 55 l-24 25 -1191 0 -1191 0
-24 -25z"/>
<path d="M1242 1830 c-12 -5 -27 -21 -32 -35 -6 -16 -10 -190 -10 -434 0 -408
0 -408 -23 -452 -13 -24 -43 -57 -66 -74 -36 -25 -52 -30 -102 -30 -53 0 -62
3 -91 33 -28 28 -33 39 -33 82 0 42 5 54 31 81 24 24 43 32 80 36 27 2 61 9
76 15 34 13 53 57 41 95 -14 41 -47 55 -123 50 -105 -6 -191 -60 -238 -151
-22 -42 -26 -64 -27 -126 0 -112 47 -190 147 -245 47 -26 63 -30 133 -30 65 1
91 6 137 27 79 37 142 98 181 177 l32 66 0 442 c0 485 2 467 -60 478 -17 2
-40 0 -53 -5z"/>
<path d="M1882 1830 c-12 -5 -27 -21 -32 -35 -6 -16 -10 -213 -10 -499 0 -519
-2 -535 -61 -647 -53 -100 -165 -191 -279 -228 -19 -6 -68 -15 -109 -20 -43
-6 -80 -16 -90 -25 -20 -21 -20 -91 0 -112 25 -24 89 -28 179 -10 259 53 454
246 505 501 23 115 18 1036 -5 1059 -20 20 -69 28 -98 16z"/>
<path d="M2522 1830 c-12 -5 -27 -21 -32 -35 -15 -41 -13 -844 3 -874 27 -53
113 -48 136 8 8 19 11 154 9 448 -3 463 -1 447 -63 458 -17 2 -40 0 -53 -5z"/>
<path d="M3162 1830 c-12 -5 -27 -21 -32 -35 -6 -16 -10 -212 -10 -496 0 -525
4 -567 65 -694 88 -183 249 -308 448 -349 127 -26 176 -18 197 35 25 59 -17
109 -90 109 -20 0 -62 7 -93 15 -159 41 -274 145 -340 308 -21 50 -22 69 -27
564 -5 561 -3 537 -65 548 -17 2 -40 0 -53 -5z"/>
<path d="M3802 1830 c-12 -5 -27 -22 -33 -37 -6 -17 -9 -176 -7 -453 l3 -425
32 -66 c39 -79 102 -140 181 -177 82 -38 196 -38 268 0 56 29 93 68 127 132
31 58 31 174 0 232 -34 64 -71 103 -127 132 -42 22 -64 26 -128 27 -92 0 -113
-13 -113 -75 0 -55 20 -70 100 -80 57 -7 73 -14 99 -39 26 -27 31 -39 31 -81
0 -42 -5 -54 -32 -81 -65 -66 -183 -42 -248 50 l-30 43 -5 433 c-5 475 -3 459
-65 470 -17 2 -40 0 -53 -5z"/>
</g>
</svg>
