<?xml version="1.0" standalone="no"?>
<!DOCTYPE svg PUBLIC "-//W3C//DTD SVG 20010904//EN"
 "http://www.w3.org/TR/2001/REC-SVG-20010904/DTD/svg10.dtd">
<svg version="1.0" xmlns="http://www.w3.org/2000/svg"
 width="512.000000pt" height="512.000000pt" viewBox="0 0 512.000000 512.000000"
 preserveAspectRatio="xMidYMid meet">

<g transform="translate(0.000000,512.000000) scale(0.100000,-0.100000)"
fill="#000000" stroke="none">
<path d="M3170 5100 c-11 -11 -20 -24 -20 -30 0 -6 -348 -11 -991 -12 l-991
-3 -19 -24 c-16 -19 -19 -39 -19 -112 l0 -89 -104 0 c-94 0 -109 -3 -157 -28
-39 -20 -62 -41 -84 -77 l-30 -48 -5 -1386 -5 -1386 -47 -5 c-54 -7 -92 -31
-125 -80 -23 -33 -23 -36 -23 -389 0 -334 1 -358 19 -388 11 -17 34 -42 50
-54 l31 -23 0 -138 0 -138 -70 0 c-39 0 -85 -6 -103 -14 -39 -16 -82 -61 -96
-99 -17 -43 -14 -430 3 -470 17 -43 78 -95 118 -102 18 -3 956 -4 2085 -3
l2051 3 39 31 c69 55 73 72 73 306 0 220 -4 245 -48 292 -50 53 -68 56 -358
56 l-266 0 6 38 c3 20 8 62 11 92 14 133 11 127 63 135 70 10 118 33 153 73
63 71 59 -2 59 1225 0 1058 -1 1125 -17 1140 -10 8 -30 19 -45 22 -22 6 -33 1
-58 -23 l-30 -30 0 -436 0 -436 -155 0 -155 0 0 1095 0 1095 133 0 c197 0 177
59 177 -533 0 -335 3 -494 11 -510 11 -24 47 -47 73 -47 7 0 25 9 40 21 l26
20 0 518 0 517 -32 54 c-26 42 -45 61 -87 82 -51 27 -59 28 -197 28 l-144 0 0
120 c0 115 -1 122 -25 145 -13 14 -36 25 -50 25 -14 0 -37 -11 -50 -25 -24
-23 -25 -30 -25 -145 l0 -120 -235 0 -235 0 0 124 c0 123 0 125 -26 145 -34
26 -68 27 -94 1z m-1500 -230 l0 -40 -195 0 -195 0 0 40 0 40 195 0 195 0 0
-40z m1470 0 l0 -40 -660 0 -660 0 0 40 0 40 660 0 660 0 0 -40z m0 -1285 l0
-1095 -1120 0 -1120 0 0 1072 0 1072 22 23 21 23 1099 0 1098 0 0 -1095z m620
1030 l0 -65 -235 0 -235 0 0 65 0 65 235 0 235 0 0 -65z m0 -345 l0 -130 -235
0 -235 0 0 123 c0 68 3 127 7 130 3 4 109 7 235 7 l228 0 0 -130z m0 -420 l0
-130 -232 2 -233 3 -3 128 -3 127 236 0 235 0 0 -130z m0 -410 l0 -130 -235 0
-235 0 0 130 0 130 235 0 235 0 0 -130z m0 -410 l0 -130 -235 0 -235 0 0 130
0 130 235 0 235 0 0 -130z m0 -410 l0 -130 -235 0 -235 0 0 130 0 130 235 0
235 0 0 -130z m-620 -576 l0 -296 30 -30 c25 -24 36 -29 58 -23 53 13 65 36
70 135 l4 90 229 0 229 0 0 -84 c0 -46 3 -92 6 -101 10 -24 60 -46 89 -39 53
13 55 24 55 341 0 160 3 294 8 296 4 2 73 2 155 -1 l147 -5 0 -586 c0 -577 0
-588 -20 -609 l-21 -22 -684 0 c-449 0 -693 -4 -711 -10 -57 -22 -69 -71 -30
-117 l24 -28 426 -3 426 -3 4 -22 c5 -23 26 -207 26 -226 0 -8 -247 -11 -845
-11 l-846 0 -24 -25 c-14 -13 -25 -31 -25 -40 0 -12 -15 -15 -85 -15 -73 0
-87 3 -92 18 -3 9 -15 27 -26 39 -19 21 -29 23 -139 23 -78 0 -118 4 -118 11
0 19 21 203 26 226 l4 22 510 3 c502 3 510 3 530 24 29 28 29 79 1 107 l-22
22 -694 3 -695 2 0 313 c0 197 -4 327 -11 352 -20 73 -106 135 -186 135 l-23
0 0 215 0 215 1120 0 1120 0 0 -296z m620 161 l0 -125 -230 0 -230 0 0 125 0
125 230 0 230 0 0 -125z m-2800 -774 l0 -318 -113 -7 c-63 -4 -121 -4 -130 0
-15 6 -17 37 -17 325 l0 319 130 0 130 0 0 -319z m54 -518 c3 -21 8 -63 11
-93 3 -30 8 -72 11 -92 l6 -38 -121 0 -121 0 0 130 0 130 104 0 104 0 6 -37z
m315 10 c0 -16 -6 -73 -12 -128 l-12 -100 -56 -3 -56 -3 -11 108 c-19 168 -25
153 68 153 l80 0 -1 -27z m2621 5 c0 -13 -5 -72 -12 -131 l-11 -108 -56 3 -56
3 -12 100 c-6 55 -12 112 -12 128 l-1 27 80 0 c76 0 80 -1 80 -22z"/>
<path d="M1307 2729 c-46 -27 -41 -105 9 -128 14 -6 69 -11 123 -11 84 0 102
3 125 21 34 27 36 77 3 107 -21 20 -34 22 -133 22 -60 0 -117 -5 -127 -11z"/>
<path d="M2473 2714 c-20 -20 -24 -31 -19 -57 11 -57 34 -67 158 -67 102 0
110 1 133 25 32 31 33 74 2 103 -21 20 -34 22 -136 22 -107 0 -113 -1 -138
-26z"/>
<path d="M1181 2214 c-28 -35 -26 -69 4 -99 42 -43 140 -30 164 22 16 34 14
47 -10 77 -18 23 -28 26 -79 26 -51 0 -61 -3 -79 -26z"/>
<path d="M1515 2037 c-91 -30 -165 -96 -206 -181 -82 -173 -16 -364 156 -454
39 -20 69 -26 137 -30 81 -4 92 -2 152 26 80 38 146 104 176 176 20 47 27 55
56 61 61 11 85 82 41 123 -13 12 -34 22 -48 22 -21 0 -28 8 -43 50 -24 68
-103 152 -173 186 -66 33 -183 42 -248 21z m143 -206 l23 -40 -28 -13 c-54
-26 -56 -106 -4 -136 l29 -16 -18 -36 c-10 -19 -27 -43 -38 -53 -18 -17 -25
-17 -57 -7 -47 16 -104 66 -121 107 -40 95 22 229 114 249 15 3 32 7 37 9 15
4 38 -20 63 -64z"/>
</g>
</svg>
